2015032_C5_01_grf
version=1
nRows=24
nColumns=19
inDegrees=no
endheader
time	ground_force_1_vx	ground_force_1_vy	ground_force_1_vz	ground_force_1_px	ground_force_1_py	ground_force_1_pz	ground_force_1_mx	ground_force_1_my	ground_force_1_mz	ground_force_2_vx	ground_force_2_vy	ground_force_2_vz	ground_force_2_px	ground_force_2_py	ground_force_2_pz	ground_force_2_mx	ground_force_2_my	ground_force_2_mz
      0.41200000	      4.04891730	    467.00280905	      8.21528994	      0.24620742	      0.00000000	     -0.29105316	      0.00000000	     -0.21951129	      0.00000000	      0.00000000	      0.00000000	      0.00000000	      0.00000000	      0.00000000	      0.00000000	      0.00000000	      0.00000000	      0.00000000
      0.41300000	      4.34248759	    468.38235855	      8.36285753	      0.24659740	      0.00000000	     -0.29120335	      0.00000000	     -0.21230178	     -0.00000000	      0.00000000	      0.00000000	      0.00000000	      0.00000000	      0.00000000	      0.00000000	      0.00000000	      0.00000000	      0.00000000
      0.41400000	      4.63853767	    469.76101398	      8.51595160	      0.24698609	      0.00000000	     -0.29135329	      0.00000000	     -0.20462396	      0.00000000	      0.00000000	      0.00000000	      0.00000000	      0.00000000	      0.00000000	      0.00000000	      0.00000000	      0.00000000	      0.00000000
      0.41500000	      4.93791809	    471.13866359	      8.67579561	      0.24737288	      0.00000000	     -0.29150280	      0.00000000	     -0.19636500	      0.00000000	      0.00000000	      0.00000000	      0.00000000	      0.00000000	      0.00000000	      0.00000000	      0.00000000	      0.00000000	      0.00000000
      0.41600000	      5.24014290	    472.51555324	      8.84089619	      0.24775790	      0.00000000	     -0.29165185	      0.00000000	     -0.18764487	      0.00000000	      0.00000000	      0.00000000	      0.00000000	      0.00000000	      0.00000000	      0.00000000	      0.00000000	      0.00000000	      0.00000000
      0.41700000	      5.54614251	    473.89161587	      9.01235780	      0.24814041	      0.00000000	     -0.29180018	      0.00000000	     -0.17835514	      0.00000000	      0.00000000	      0.00000000	      0.00000000	      0.00000000	      0.00000000	      0.00000000	      0.00000000	      0.00000000	      0.00000000
      0.41800000	      5.85532682	    475.26700795	      9.18872170	      0.24852068	      0.00000000	     -0.29194789	      0.00000000	     -0.16861782	      0.00000000	      0.00000000	      0.00000000	      0.00000000	      0.00000000	      0.00000000	      0.00000000	      0.00000000	      0.00000000	      0.00000000
      0.41900000	      6.16868259	    476.64164007	      9.37095825	      0.24889787	      0.00000000	     -0.29209469	      0.00000000	     -0.15833581	      0.00000000	      0.00000000	      0.00000000	      0.00000000	      0.00000000	      0.00000000	      0.00000000	      0.00000000	      0.00000000	      0.00000000
      0.42000000	      6.48551392	    478.01569104	      9.55767520	      0.24927238	      0.00000000	     -0.29224069	      0.00000000	     -0.14763297	      0.00000000	      0.00000000	      0.00000000	      0.00000000	      0.00000000	      0.00000000	      0.00000000	      0.00000000	      0.00000000	      0.00000000
      0.42100000	      6.80684675	    479.38898206	      9.74970404	      0.24964326	      0.00000000	     -0.29238563	      0.00000000	     -0.13642538	      0.00000000	      0.00000000	      0.00000000	      0.00000000	      0.00000000	      0.00000000	      0.00000000	      0.00000000	      0.00000000	      0.00000000
      0.42200000	      7.13189989	    480.76169193	      9.94573385	      0.25001105	      0.00000000	     -0.29252965	      0.00000000	     -0.12483206	      0.00000000	      0.00000000	      0.00000000	      0.00000000	      0.00000000	      0.00000000	      0.00000000	      0.00000000	      0.00000000	      0.00000000
      0.42300000	      7.46174078	    482.13361949	     10.14643684	      0.25037469	      0.00000000	     -0.29267245	      0.00000000	     -0.11278143	      0.00000000	      0.00000000	      0.00000000	      0.00000000	      0.00000000	      0.00000000	      0.00000000	      0.00000000	      0.00000000	      0.00000000
      0.42400000	      7.79550774	    483.50487649	     10.35060100	      0.25073483	      0.00000000	     -0.29281423	      0.00000000	     -0.10038753	      0.00000000	      0.00000000	      0.00000000	      0.00000000	      0.00000000	      0.00000000	      0.00000000	      0.00000000	      0.00000000	      0.00000000
      0.42500000	      8.13428541	    484.87521708	     10.55873707	      0.25109033	      0.00000000	     -0.29295463	      0.00000000	     -0.08759587	     -0.00000000	      0.00000000	      0.00000000	      0.00000000	      0.00000000	      0.00000000	      0.00000000	      0.00000000	      0.00000000	      0.00000000
      0.42600000	      8.47713919	    486.24470830	     10.76975875	      0.25144195	      0.00000000	     -0.29309386	      0.00000000	     -0.07451344	      0.00000000	      0.00000000	      0.00000000	      0.00000000	      0.00000000	      0.00000000	      0.00000000	      0.00000000	      0.00000000	      0.00000000
      0.42700000	      8.82515078	    487.61305958	     10.98401695	      0.25178850	      0.00000000	     -0.29323151	      0.00000000	     -0.06110453	      0.00000000	      0.00000000	      0.00000000	      0.00000000	      0.00000000	      0.00000000	      0.00000000	      0.00000000	      0.00000000	      0.00000000
      0.42800000	      9.17732734	    488.98038268	     11.20055839	      0.25213083	      0.00000000	     -0.29336783	      0.00000000	     -0.04746581	      0.00000000	      0.00000000	      0.00000000	      0.00000000	      0.00000000	      0.00000000	      0.00000000	      0.00000000	      0.00000000	      0.00000000
      0.42900000	      9.53474259	    490.34629762	     11.41956523	      0.25246767	      0.00000000	     -0.29350237	      0.00000000	     -0.03358276	      0.00000000	      0.00000000	      0.00000000	      0.00000000	      0.00000000	      0.00000000	      0.00000000	      0.00000000	      0.00000000	      0.00000000
      0.43000000	      9.89636388	    491.71100557	     11.64022721	      0.25279998	      0.00000000	     -0.29363540	      0.00000000	     -0.01954105	      0.00000000	      0.00000000	      0.00000000	      0.00000000	      0.00000000	      0.00000000	      0.00000000	      0.00000000	      0.00000000	      0.00000000
      0.43100000	     10.26325570	    493.07410419	     11.86256111	      0.25312644	      0.00000000	     -0.29376638	      0.00000000	     -0.00534879	      0.00000000	      0.00000000	      0.00000000	      0.00000000	      0.00000000	      0.00000000	      0.00000000	      0.00000000	      0.00000000	      0.00000000
      0.43200000	     10.63437117	    494.43577230	     12.08591089	      0.25344809	      0.00000000	     -0.29389561	      0.00000000	      0.00892418	      0.00000000	      0.00000000	      0.00000000	      0.00000000	      0.00000000	      0.00000000	      0.00000000	      0.00000000	      0.00000000	      0.00000000
      0.43300000	     11.01076934	    495.79558522	     12.31013294	      0.25376357	      0.00000000	     -0.29402252	      0.00000000	      0.02324613	      0.00000000	      0.00000000	      0.00000000	      0.00000000	      0.00000000	      0.00000000	      0.00000000	      0.00000000	      0.00000000	      0.00000000
      0.43400000	     11.39139533	    497.15365469	     12.53473721	      0.25407402	      0.00000000	     -0.29414746	      0.00000000	      0.03756461	      0.00000000	      0.00000000	      0.00000000	      0.00000000	      0.00000000	      0.00000000	      0.00000000	      0.00000000	      0.00000000	      0.00000000
      0.43500000	     11.77730318	    498.50937724	     12.75943927	      0.25437807	      0.00000000	     -0.29426980	      0.00000000	      0.05182293	      0.00000000	      0.00000000	      0.00000000	      0.00000000	      0.00000000	      0.00000000	      0.00000000	      0.00000000	      0.00000000	      0.00000000
